<?xml version="1.0" encoding="UTF-8" ?>
<!DOCTYPE svg PUBLIC "-//W3C//DTD SVG 1.1//EN" "http://www.w3.org/Graphics/SVG/1.1/DTD/svg11.dtd">
<svg width="1086pt" height="1086pt" viewBox="0 0 1086 1086" version="1.1" xmlns="http://www.w3.org/2000/svg">
<g id="#fa506bff">
<path fill="#fa506b" opacity="1.00" d=" M 626.71 187.40 C 648.48 182.33 670.72 179.48 692.95 177.52 C 707.64 177.13 722.34 177.17 737.04 177.36 C 742.07 177.21 746.95 178.71 751.99 178.51 C 795.81 181.97 839.09 193.70 878.23 213.84 C 880.19 215.05 882.73 215.67 884.22 217.49 C 885.04 224.31 886.83 231.04 886.64 237.96 C 886.61 284.99 886.65 332.02 886.45 379.04 C 884.96 389.97 885.77 401.01 885.59 412.00 C 885.30 454.02 885.19 496.04 885.24 538.06 C 885.54 545.68 880.16 552.25 873.74 555.70 C 869.51 557.89 864.58 557.91 859.96 557.52 C 856.23 557.33 853.29 554.71 851.02 551.99 C 804.05 489.82 760.77 424.99 715.11 361.87 C 710.15 355.45 705.95 348.47 700.83 342.17 C 694.18 333.90 688.98 323.99 679.67 318.29 C 667.82 310.00 653.51 305.21 639.00 305.44 C 624.93 304.71 610.61 307.44 598.08 313.96 C 585.05 320.21 575.02 332.33 571.26 346.29 C 568.70 353.60 569.54 361.41 569.44 369.00 C 569.41 384.33 569.17 399.66 569.32 414.99 C 569.48 420.01 568.67 424.98 568.53 429.99 C 568.25 565.32 569.23 700.67 568.27 836.00 C 567.40 849.32 567.72 862.69 567.57 876.03 C 563.04 874.29 558.53 872.51 553.92 870.99 C 546.06 867.96 539.27 862.82 531.91 858.82 C 515.75 848.59 500.27 837.08 482.98 828.75 C 477.03 827.97 470.98 828.72 465.03 827.79 C 447.02 827.58 429.01 827.77 411.00 827.70 C 397.71 828.89 384.33 828.08 371.00 828.31 C 363.34 828.22 355.66 828.49 348.01 828.20 C 340.66 827.12 333.15 828.25 325.83 826.88 C 320.52 826.29 314.98 826.98 309.95 824.82 C 297.72 820.47 289.97 808.27 287.58 795.98 C 287.07 789.99 287.08 783.95 287.54 777.96 C 289.08 768.60 294.81 760.01 302.79 754.89 C 311.75 750.13 322.04 749.10 331.91 747.64 C 348.26 747.18 364.70 747.04 380.97 748.56 C 400.30 749.13 420.41 749.10 438.49 741.33 C 447.60 736.13 453.55 726.15 454.65 715.80 C 455.81 709.99 454.73 704.05 453.45 698.36 C 450.61 688.43 444.41 678.88 434.79 674.42 C 427.10 670.41 418.26 671.70 409.94 671.25 C 397.38 669.57 384.64 670.44 372.00 670.13 C 326.66 669.90 281.34 670.88 236.01 670.37 C 226.82 669.54 217.58 669.83 208.38 669.17 C 202.84 667.89 196.98 669.25 191.55 667.35 C 181.21 664.22 173.06 655.45 169.89 645.21 C 167.50 639.09 168.34 632.42 168.20 626.01 C 167.73 612.28 176.69 598.43 189.82 593.92 C 195.53 592.87 201.34 592.64 207.09 591.90 C 215.28 590.87 223.56 591.71 231.78 591.13 C 241.13 589.93 250.58 590.42 259.98 590.53 C 287.86 590.87 315.82 592.37 343.68 590.27 C 349.20 589.55 354.94 590.09 360.25 588.13 C 369.85 585.12 377.86 577.77 381.47 568.36 C 385.38 560.15 385.12 550.80 384.27 541.97 C 382.27 531.85 375.81 522.24 366.39 517.69 C 357.93 514.63 348.86 513.95 340.02 512.61 C 323.02 511.85 305.99 512.28 288.99 512.55 C 281.29 512.46 273.70 513.97 266.00 513.48 C 257.63 513.97 249.38 512.53 241.04 512.28 C 233.19 511.45 225.38 510.10 217.79 507.96 C 208.71 504.11 201.51 495.87 198.74 486.41 C 196.70 480.48 197.35 474.12 197.42 467.98 C 198.30 458.43 202.94 449.40 209.58 442.56 C 214.43 438.07 220.64 435.07 227.09 433.71 C 233.71 433.06 240.40 433.73 247.00 432.78 C 287.33 432.04 327.67 432.70 368.01 432.73 C 377.30 433.81 386.66 433.14 396.00 433.34 C 401.69 433.62 407.31 432.37 413.00 432.70 C 423.66 432.58 434.37 432.92 444.97 431.72 C 452.56 431.63 460.15 431.20 467.73 431.59 C 466.10 431.14 464.41 431.09 462.77 430.80 C 471.61 430.99 480.36 426.84 485.81 419.88 C 489.88 415.11 492.29 409.13 493.55 403.04 C 494.02 396.69 494.01 390.29 493.54 383.95 C 491.36 374.09 485.42 364.69 476.37 359.83 C 468.93 355.95 460.30 356.37 452.21 355.12 C 450.51 354.80 448.78 354.63 447.05 354.59 C 418.37 353.90 389.69 354.97 361.00 354.74 C 347.97 354.91 334.94 354.18 322.11 351.91 C 306.60 348.65 296.36 332.31 297.24 317.00 C 296.99 310.45 297.27 303.78 300.03 297.73 C 304.39 287.01 314.38 277.83 326.34 277.23 C 334.82 275.65 343.40 275.28 352.01 275.30 C 362.28 273.94 372.67 274.76 383.00 274.54 C 388.01 274.44 393.03 274.46 398.00 275.26 C 417.01 275.51 436.03 275.43 455.05 275.43 C 460.53 275.89 464.12 271.07 468.03 268.06 C 500.36 241.47 536.44 219.29 575.25 203.51 C 592.05 197.12 609.14 191.31 626.71 187.40 Z" />
<path fill="#fa506b" opacity="1.00" d=" M 190.83 276.14 C 199.11 274.46 207.57 274.08 216.00 274.30 C 226.74 273.89 237.34 275.89 247.88 277.64 C 251.15 278.30 254.53 278.82 257.43 280.59 C 267.68 285.81 273.65 296.93 275.33 307.98 C 275.91 316.14 276.04 324.86 272.29 332.36 C 269.46 339.48 263.92 345.34 257.45 349.32 C 248.24 353.58 237.95 354.25 228.03 355.49 C 221.01 355.60 213.98 355.68 206.97 355.42 C 199.06 354.34 191.04 354.05 183.21 352.46 C 173.16 350.05 165.38 342.07 161.12 332.92 C 156.20 321.77 155.79 308.59 160.46 297.29 C 163.68 289.84 169.83 283.73 177.21 280.38 C 181.61 278.57 186.21 277.27 190.83 276.14 Z" />
<path fill="#fa506b" opacity="1.00" d=" M 994.74 303.85 C 999.29 307.81 1002.64 312.88 1006.52 317.46 C 1035.42 354.10 1057.14 396.41 1069.88 441.32 C 1078.98 472.69 1084.28 505.29 1083.70 538.00 C 1083.61 550.48 1084.06 563.02 1082.58 575.44 C 1082.36 578.64 1081.57 581.78 1081.54 585.01 C 1081.67 591.74 1078.79 598.18 1079.53 604.95 C 1079.23 603.62 1078.94 602.31 1078.64 601.01 C 1078.71 609.70 1075.94 618.08 1074.27 626.54 C 1068.19 651.56 1059.34 675.91 1048.11 699.08 C 1041.13 713.95 1032.52 727.97 1023.73 741.83 C 1012.57 758.94 999.63 774.80 985.93 789.92 C 974.10 802.43 961.35 814.01 948.18 825.08 C 931.19 838.46 913.16 850.48 894.37 861.18 C 855.95 882.35 813.53 895.87 770.22 902.39 C 757.90 904.46 745.34 905.10 732.90 906.45 C 721.24 906.35 709.67 907.84 698.00 907.25 C 690.59 906.33 683.08 906.59 675.63 906.50 L 675.62 905.48 C 675.53 898.98 675.61 892.48 675.79 885.98 C 676.68 872.67 676.32 859.32 676.63 846.00 C 676.76 834.67 676.25 823.32 677.37 812.03 C 677.44 736.36 677.32 660.69 677.43 585.03 C 678.20 571.01 675.94 556.34 681.02 542.93 C 683.87 535.27 692.52 532.69 699.91 532.22 C 705.45 532.69 709.44 537.17 713.08 540.94 C 719.29 547.16 724.04 554.61 729.57 561.41 C 735.39 569.22 741.32 576.93 747.32 584.60 C 751.62 591.19 756.78 597.15 761.43 603.49 C 766.19 610.69 771.95 617.17 776.63 624.44 C 788.60 639.84 799.36 656.15 811.41 671.48 C 816.70 679.51 823.16 686.66 828.34 694.76 C 837.10 706.02 845.31 717.70 854.03 729.01 C 859.92 736.15 865.26 743.71 871.09 750.90 C 876.68 759.23 885.63 764.44 894.41 768.85 C 903.09 773.38 913.05 774.19 922.65 774.93 C 937.25 776.53 951.95 772.67 964.92 766.10 C 978.07 759.82 988.27 747.51 991.60 733.28 C 994.51 722.75 993.13 711.76 993.66 701.00 C 993.31 692.64 994.69 684.35 994.41 676.00 C 995.33 551.95 994.27 427.89 994.74 303.85 Z" />
<path fill="#fa506b" opacity="1.00" d=" M 48.51 432.83 C 62.97 431.59 77.49 431.26 92.00 431.89 C 98.70 432.96 105.53 432.19 112.26 433.01 C 117.29 433.69 122.43 433.09 127.43 434.07 C 133.29 434.83 139.48 433.72 145.04 436.22 C 159.35 441.95 167.65 458.01 166.73 473.00 C 167.80 489.09 157.66 506.93 141.07 510.22 C 130.71 510.74 120.43 512.42 110.03 512.51 C 104.99 512.43 100.05 513.71 95.00 513.50 C 84.33 513.37 73.65 513.66 62.99 513.35 C 55.83 512.20 48.53 512.69 41.36 511.60 C 34.67 510.60 27.81 510.54 21.31 508.51 C 13.46 505.38 6.91 499.15 3.62 491.34 C -0.00 484.49 -0.04 476.56 0.22 469.03 C 0.32 460.81 3.67 452.90 8.41 446.30 C 11.65 442.00 16.05 438.12 21.51 437.16 C 30.42 435.17 39.43 433.63 48.51 432.83 Z" />
</g>
<g id="#ffffffff">
<path fill="#ffffff" opacity="1.00" d=" M 884.22 217.49 C 895.85 222.64 907.12 228.65 918.41 234.52 C 934.02 242.75 949.34 251.81 962.89 263.18 C 974.56 272.59 984.51 284.21 991.74 297.36 C 992.80 299.47 994.50 301.40 994.74 303.85 C 994.27 427.89 995.33 551.95 994.41 676.00 C 994.69 684.35 993.31 692.64 993.66 701.00 C 993.13 711.76 994.51 722.75 991.60 733.28 C 988.27 747.51 978.07 759.82 964.92 766.10 C 951.95 772.67 937.25 776.53 922.65 774.93 C 913.05 774.19 903.09 773.38 894.41 768.85 C 885.63 764.44 876.68 759.23 871.09 750.90 C 865.26 743.71 859.92 736.15 854.03 729.01 C 845.31 717.70 837.10 706.02 828.34 694.76 C 823.16 686.66 816.70 679.51 811.41 671.48 C 799.36 656.15 788.60 639.84 776.63 624.44 C 771.95 617.17 766.19 610.69 761.43 603.49 C 756.78 597.15 751.62 591.19 747.32 584.60 C 741.32 576.93 735.39 569.22 729.57 561.41 C 724.04 554.61 719.29 547.16 713.08 540.94 C 709.44 537.17 705.45 532.69 699.91 532.22 C 692.52 532.69 683.87 535.27 681.02 542.93 C 675.94 556.34 678.20 571.01 677.43 585.03 C 677.32 660.69 677.44 736.36 677.37 812.03 C 676.25 823.32 676.76 834.67 676.63 846.00 C 676.32 859.32 676.68 872.67 675.79 885.98 C 675.61 892.48 675.53 898.98 675.62 905.48 C 668.61 906.02 661.86 903.40 654.90 903.39 C 639.27 900.81 623.50 898.92 608.09 895.15 C 588.75 890.61 569.73 883.25 553.92 870.99 C 558.53 872.51 563.04 874.29 567.57 876.03 C 567.72 862.69 567.40 849.32 568.27 836.00 C 569.23 700.67 568.25 565.32 568.53 429.99 C 568.67 424.98 569.48 420.01 569.32 414.99 C 569.17 399.66 569.41 384.33 569.44 369.00 C 569.54 361.41 568.70 353.60 571.26 346.29 C 575.02 332.33 585.05 320.21 598.08 313.96 C 610.61 307.44 624.93 304.71 639.00 305.44 C 653.51 305.21 667.82 310.00 679.67 318.29 C 688.98 323.99 694.18 333.90 700.83 342.17 C 705.95 348.47 710.15 355.45 715.11 361.87 C 760.77 424.99 804.05 489.82 851.02 551.99 C 853.29 554.71 856.23 557.33 859.96 557.52 C 864.58 557.91 869.51 557.89 873.74 555.70 C 880.16 552.25 885.54 545.68 885.24 538.06 C 885.19 496.04 885.30 454.02 885.59 412.00 C 885.77 401.01 884.96 389.97 886.45 379.04 C 886.65 332.02 886.61 284.99 886.64 237.96 C 886.83 231.04 885.04 224.31 884.22 217.49 Z" />
</g>
<g id="#94344441">
<path fill="#943444" opacity="0.25" d=" M 343.00 589.33 C 348.79 589.51 354.48 588.35 360.25 588.13 C 354.94 590.09 349.20 589.55 343.68 590.27 C 315.82 592.37 287.86 590.87 259.98 590.53 C 250.58 590.42 241.13 589.93 231.78 591.13 C 223.56 591.71 215.28 590.87 207.09 591.90 C 201.34 592.64 195.53 592.87 189.82 593.92 C 194.79 591.45 200.59 591.99 205.95 591.08 C 214.66 590.87 223.26 589.16 231.99 589.43 C 246.67 589.04 261.36 589.53 276.05 589.46 C 280.38 589.54 284.66 590.50 289.00 590.35 C 299.67 590.08 310.34 590.88 321.00 590.33 C 328.37 590.75 335.64 589.15 343.00 589.33 Z" />
</g>
</svg>
